<mxfile host="Electron" modified="2023-12-18T03:55:25.537Z" agent="Mozilla/5.0 (Windows NT 10.0; Win64; x64) AppleWebKit/537.36 (KHTML, like Gecko) draw.io/22.1.2 Chrome/114.0.5735.289 Electron/25.9.4 Safari/537.36" etag="QJAtfcyJdAZ15tWc2ix2" version="22.1.2" type="device">
  <diagram name="Page-1" id="Kgn6htsi4bFIU0mAGvts">
    <mxGraphModel dx="1036" dy="606" grid="1" gridSize="10" guides="1" tooltips="1" connect="1" arrows="1" fold="1" page="1" pageScale="1" pageWidth="850" pageHeight="1100" math="0" shadow="0">
      <root>
        <mxCell id="0" />
        <mxCell id="1" parent="0" />
        <mxCell id="uSK30eEuWAXtoziRserC-48" value="" style="rounded=0;whiteSpace=wrap;html=1;" parent="1" vertex="1">
          <mxGeometry x="370" y="210" width="380" height="250" as="geometry" />
        </mxCell>
        <mxCell id="uSK30eEuWAXtoziRserC-1" value="" style="ellipse;whiteSpace=wrap;html=1;aspect=fixed;fillColor=#ffe6cc;strokeColor=#d79b00;" parent="1" vertex="1">
          <mxGeometry x="380" y="250" width="20" height="20" as="geometry" />
        </mxCell>
        <mxCell id="uSK30eEuWAXtoziRserC-2" value="" style="ellipse;whiteSpace=wrap;html=1;aspect=fixed;fillColor=#ffe6cc;strokeColor=#d79b00;" parent="1" vertex="1">
          <mxGeometry x="405" y="230" width="20" height="20" as="geometry" />
        </mxCell>
        <mxCell id="uSK30eEuWAXtoziRserC-3" value="" style="ellipse;whiteSpace=wrap;html=1;aspect=fixed;fillColor=#ffe6cc;strokeColor=#d79b00;" parent="1" vertex="1">
          <mxGeometry x="385" y="280" width="20" height="20" as="geometry" />
        </mxCell>
        <mxCell id="uSK30eEuWAXtoziRserC-4" value="" style="ellipse;whiteSpace=wrap;html=1;aspect=fixed;fillColor=#ffe6cc;strokeColor=#d79b00;" parent="1" vertex="1">
          <mxGeometry x="405" y="260" width="20" height="20" as="geometry" />
        </mxCell>
        <mxCell id="uSK30eEuWAXtoziRserC-7" value="" style="ellipse;whiteSpace=wrap;html=1;aspect=fixed;fillColor=#ffe6cc;strokeColor=#d79b00;" parent="1" vertex="1">
          <mxGeometry x="435" y="240" width="20" height="20" as="geometry" />
        </mxCell>
        <mxCell id="uSK30eEuWAXtoziRserC-8" value="" style="ellipse;whiteSpace=wrap;html=1;aspect=fixed;fillColor=#ffe6cc;strokeColor=#d79b00;" parent="1" vertex="1">
          <mxGeometry x="435" y="270" width="20" height="20" as="geometry" />
        </mxCell>
        <mxCell id="uSK30eEuWAXtoziRserC-9" value="" style="ellipse;whiteSpace=wrap;html=1;aspect=fixed;fillColor=#dae8fc;strokeColor=#6c8ebf;" parent="1" vertex="1">
          <mxGeometry x="490" y="240" width="20" height="20" as="geometry" />
        </mxCell>
        <mxCell id="uSK30eEuWAXtoziRserC-11" value="" style="ellipse;whiteSpace=wrap;html=1;aspect=fixed;fillColor=#dae8fc;strokeColor=#6c8ebf;" parent="1" vertex="1">
          <mxGeometry x="510" y="270" width="20" height="20" as="geometry" />
        </mxCell>
        <mxCell id="uSK30eEuWAXtoziRserC-12" value="" style="ellipse;whiteSpace=wrap;html=1;aspect=fixed;fillColor=#dae8fc;strokeColor=#6c8ebf;" parent="1" vertex="1">
          <mxGeometry x="515" y="240" width="20" height="20" as="geometry" />
        </mxCell>
        <mxCell id="uSK30eEuWAXtoziRserC-15" value="" style="ellipse;whiteSpace=wrap;html=1;aspect=fixed;fillColor=#ffe6cc;strokeColor=#d79b00;" parent="1" vertex="1">
          <mxGeometry x="660" y="245" width="20" height="20" as="geometry" />
        </mxCell>
        <mxCell id="uSK30eEuWAXtoziRserC-16" value="" style="ellipse;whiteSpace=wrap;html=1;aspect=fixed;fillColor=#ffe6cc;strokeColor=#d79b00;" parent="1" vertex="1">
          <mxGeometry x="685" y="225" width="20" height="20" as="geometry" />
        </mxCell>
        <mxCell id="uSK30eEuWAXtoziRserC-17" value="" style="ellipse;whiteSpace=wrap;html=1;aspect=fixed;fillColor=#ffe6cc;strokeColor=#d79b00;" parent="1" vertex="1">
          <mxGeometry x="665" y="275" width="20" height="20" as="geometry" />
        </mxCell>
        <mxCell id="uSK30eEuWAXtoziRserC-18" value="" style="ellipse;whiteSpace=wrap;html=1;aspect=fixed;fillColor=#ffe6cc;strokeColor=#d79b00;" parent="1" vertex="1">
          <mxGeometry x="685" y="255" width="20" height="20" as="geometry" />
        </mxCell>
        <mxCell id="uSK30eEuWAXtoziRserC-19" value="" style="ellipse;whiteSpace=wrap;html=1;aspect=fixed;fillColor=#ffe6cc;strokeColor=#d79b00;" parent="1" vertex="1">
          <mxGeometry x="715" y="235" width="20" height="20" as="geometry" />
        </mxCell>
        <mxCell id="uSK30eEuWAXtoziRserC-20" value="" style="ellipse;whiteSpace=wrap;html=1;aspect=fixed;fillColor=#ffe6cc;strokeColor=#d79b00;" parent="1" vertex="1">
          <mxGeometry x="715" y="265" width="20" height="20" as="geometry" />
        </mxCell>
        <mxCell id="uSK30eEuWAXtoziRserC-21" value="" style="ellipse;whiteSpace=wrap;html=1;aspect=fixed;fillColor=#dae8fc;strokeColor=#6c8ebf;" parent="1" vertex="1">
          <mxGeometry x="570" y="240" width="20" height="20" as="geometry" />
        </mxCell>
        <mxCell id="uSK30eEuWAXtoziRserC-22" value="" style="ellipse;whiteSpace=wrap;html=1;aspect=fixed;fillColor=#dae8fc;strokeColor=#6c8ebf;" parent="1" vertex="1">
          <mxGeometry x="590" y="270" width="20" height="20" as="geometry" />
        </mxCell>
        <mxCell id="uSK30eEuWAXtoziRserC-23" value="" style="ellipse;whiteSpace=wrap;html=1;aspect=fixed;fillColor=#dae8fc;strokeColor=#6c8ebf;" parent="1" vertex="1">
          <mxGeometry x="595" y="240" width="20" height="20" as="geometry" />
        </mxCell>
        <mxCell id="uSK30eEuWAXtoziRserC-24" value="&lt;font style=&quot;font-size: 18px;&quot;&gt;=&lt;/font&gt;" style="text;html=1;strokeColor=none;fillColor=none;align=center;verticalAlign=middle;whiteSpace=wrap;rounded=0;" parent="1" vertex="1">
          <mxGeometry x="520" y="245" width="60" height="30" as="geometry" />
        </mxCell>
        <mxCell id="uSK30eEuWAXtoziRserC-25" value="&lt;font style=&quot;font-size: 18px;&quot;&gt;+&lt;/font&gt;" style="text;html=1;strokeColor=none;fillColor=none;align=center;verticalAlign=middle;whiteSpace=wrap;rounded=0;" parent="1" vertex="1">
          <mxGeometry x="605" y="245" width="60" height="30" as="geometry" />
        </mxCell>
        <mxCell id="uSK30eEuWAXtoziRserC-26" value="&lt;font style=&quot;font-size: 18px;&quot;&gt;+&lt;/font&gt;" style="text;html=1;strokeColor=none;fillColor=none;align=center;verticalAlign=middle;whiteSpace=wrap;rounded=0;" parent="1" vertex="1">
          <mxGeometry x="446" y="245" width="60" height="30" as="geometry" />
        </mxCell>
        <mxCell id="uSK30eEuWAXtoziRserC-27" value="" style="rounded=0;whiteSpace=wrap;html=1;fillColor=#f8cecc;strokeColor=#b85450;" parent="1" vertex="1">
          <mxGeometry x="413" y="335" width="20" height="20" as="geometry" />
        </mxCell>
        <mxCell id="uSK30eEuWAXtoziRserC-28" value="" style="rounded=0;whiteSpace=wrap;html=1;fillColor=#f8cecc;strokeColor=#b85450;" parent="1" vertex="1">
          <mxGeometry x="445" y="335" width="20" height="20" as="geometry" />
        </mxCell>
        <mxCell id="uSK30eEuWAXtoziRserC-29" value="" style="rounded=0;whiteSpace=wrap;html=1;fillColor=#f8cecc;strokeColor=#b85450;" parent="1" vertex="1">
          <mxGeometry x="476" y="335" width="20" height="20" as="geometry" />
        </mxCell>
        <mxCell id="uSK30eEuWAXtoziRserC-30" value="" style="rounded=0;whiteSpace=wrap;html=1;fillColor=#f8cecc;strokeColor=#b85450;" parent="1" vertex="1">
          <mxGeometry x="508" y="335" width="20" height="20" as="geometry" />
        </mxCell>
        <mxCell id="uSK30eEuWAXtoziRserC-32" value="" style="rounded=0;whiteSpace=wrap;html=1;fillColor=#f8cecc;strokeColor=#b85450;" parent="1" vertex="1">
          <mxGeometry x="413" y="365" width="20" height="20" as="geometry" />
        </mxCell>
        <mxCell id="uSK30eEuWAXtoziRserC-33" value="" style="rounded=0;whiteSpace=wrap;html=1;fillColor=#f8cecc;strokeColor=#b85450;" parent="1" vertex="1">
          <mxGeometry x="445" y="365" width="20" height="20" as="geometry" />
        </mxCell>
        <mxCell id="uSK30eEuWAXtoziRserC-34" value="" style="rounded=0;whiteSpace=wrap;html=1;fillColor=#f8cecc;strokeColor=#b85450;" parent="1" vertex="1">
          <mxGeometry x="476" y="365" width="20" height="20" as="geometry" />
        </mxCell>
        <mxCell id="uSK30eEuWAXtoziRserC-35" value="" style="rounded=0;whiteSpace=wrap;html=1;fillColor=#f8cecc;strokeColor=#b85450;" parent="1" vertex="1">
          <mxGeometry x="508" y="365" width="20" height="20" as="geometry" />
        </mxCell>
        <mxCell id="uSK30eEuWAXtoziRserC-36" value="" style="rounded=0;whiteSpace=wrap;html=1;fillColor=#f8cecc;strokeColor=#b85450;" parent="1" vertex="1">
          <mxGeometry x="577" y="305" width="20" height="20" as="geometry" />
        </mxCell>
        <mxCell id="uSK30eEuWAXtoziRserC-37" value="" style="rounded=0;whiteSpace=wrap;html=1;fillColor=#f8cecc;strokeColor=#b85450;" parent="1" vertex="1">
          <mxGeometry x="609" y="305" width="20" height="20" as="geometry" />
        </mxCell>
        <mxCell id="uSK30eEuWAXtoziRserC-38" value="" style="rounded=0;whiteSpace=wrap;html=1;fillColor=#f8cecc;strokeColor=#b85450;" parent="1" vertex="1">
          <mxGeometry x="577" y="365" width="20" height="20" as="geometry" />
        </mxCell>
        <mxCell id="uSK30eEuWAXtoziRserC-39" value="" style="rounded=0;whiteSpace=wrap;html=1;fillColor=#f8cecc;strokeColor=#b85450;" parent="1" vertex="1">
          <mxGeometry x="577" y="395" width="20" height="20" as="geometry" />
        </mxCell>
        <mxCell id="uSK30eEuWAXtoziRserC-40" value="" style="rounded=0;whiteSpace=wrap;html=1;fillColor=#f8cecc;strokeColor=#b85450;" parent="1" vertex="1">
          <mxGeometry x="577" y="335" width="20" height="20" as="geometry" />
        </mxCell>
        <mxCell id="uSK30eEuWAXtoziRserC-41" value="" style="rounded=0;whiteSpace=wrap;html=1;fillColor=#f8cecc;strokeColor=#b85450;" parent="1" vertex="1">
          <mxGeometry x="609" y="335" width="20" height="20" as="geometry" />
        </mxCell>
        <mxCell id="uSK30eEuWAXtoziRserC-42" value="" style="rounded=0;whiteSpace=wrap;html=1;fillColor=#f8cecc;strokeColor=#b85450;" parent="1" vertex="1">
          <mxGeometry x="609" y="365" width="20" height="20" as="geometry" />
        </mxCell>
        <mxCell id="uSK30eEuWAXtoziRserC-43" value="" style="rounded=0;whiteSpace=wrap;html=1;fillColor=#f8cecc;strokeColor=#b85450;" parent="1" vertex="1">
          <mxGeometry x="609" y="395" width="20" height="20" as="geometry" />
        </mxCell>
        <mxCell id="uSK30eEuWAXtoziRserC-44" value="&lt;font style=&quot;font-size: 18px;&quot;&gt;=&lt;/font&gt;" style="text;html=1;strokeColor=none;fillColor=none;align=center;verticalAlign=middle;whiteSpace=wrap;rounded=0;" parent="1" vertex="1">
          <mxGeometry x="518" y="345" width="60" height="30" as="geometry" />
        </mxCell>
        <mxCell id="uSK30eEuWAXtoziRserC-45" value="5 % of 80" style="text;html=1;strokeColor=none;fillColor=none;align=center;verticalAlign=middle;whiteSpace=wrap;rounded=0;" parent="1" vertex="1">
          <mxGeometry x="445" y="420" width="60" height="30" as="geometry" />
        </mxCell>
        <mxCell id="uSK30eEuWAXtoziRserC-46" value="80 % of 5" style="text;html=1;strokeColor=none;fillColor=none;align=center;verticalAlign=middle;whiteSpace=wrap;rounded=0;" parent="1" vertex="1">
          <mxGeometry x="578" y="420" width="60" height="30" as="geometry" />
        </mxCell>
        <mxCell id="uSK30eEuWAXtoziRserC-47" value="&lt;font style=&quot;font-size: 18px;&quot;&gt;=&lt;/font&gt;" style="text;html=1;strokeColor=none;fillColor=none;align=center;verticalAlign=middle;whiteSpace=wrap;rounded=0;" parent="1" vertex="1">
          <mxGeometry x="522.5" y="420" width="60" height="30" as="geometry" />
        </mxCell>
        <mxCell id="K2Dioi9SlevqumcRy7Vd-1" value="" style="rounded=0;whiteSpace=wrap;html=1;" vertex="1" parent="1">
          <mxGeometry x="40" y="235" width="310" height="200" as="geometry" />
        </mxCell>
        <mxCell id="K2Dioi9SlevqumcRy7Vd-2" value="f(" style="text;html=1;strokeColor=none;fillColor=none;align=right;verticalAlign=middle;whiteSpace=wrap;rounded=0;" vertex="1" parent="1">
          <mxGeometry x="170" y="385" width="30" height="30" as="geometry" />
        </mxCell>
        <mxCell id="K2Dioi9SlevqumcRy7Vd-3" value="f(" style="text;html=1;strokeColor=none;fillColor=none;align=right;verticalAlign=middle;whiteSpace=wrap;rounded=0;" vertex="1" parent="1">
          <mxGeometry x="160" y="255" width="30" height="30" as="geometry" />
        </mxCell>
        <mxCell id="K2Dioi9SlevqumcRy7Vd-4" value="" style="rounded=0;whiteSpace=wrap;html=1;fillColor=#FF8000;" vertex="1" parent="1">
          <mxGeometry x="190" y="260.24" width="30" height="20" as="geometry" />
        </mxCell>
        <mxCell id="K2Dioi9SlevqumcRy7Vd-5" value=")" style="text;html=1;strokeColor=none;fillColor=none;align=left;verticalAlign=middle;whiteSpace=wrap;rounded=0;" vertex="1" parent="1">
          <mxGeometry x="220" y="255" width="10" height="30" as="geometry" />
        </mxCell>
        <mxCell id="K2Dioi9SlevqumcRy7Vd-6" value="" style="shape=flexArrow;endArrow=classic;html=1;rounded=0;exitX=0;exitY=0.5;exitDx=0;exitDy=0;" edge="1" parent="1">
          <mxGeometry width="50" height="50" relative="1" as="geometry">
            <mxPoint x="230" y="269.8" as="sourcePoint" />
            <mxPoint x="280" y="269.8" as="targetPoint" />
          </mxGeometry>
        </mxCell>
        <mxCell id="K2Dioi9SlevqumcRy7Vd-7" value="" style="rounded=0;whiteSpace=wrap;html=1;fillColor=#00CC00;" vertex="1" parent="1">
          <mxGeometry x="290" y="260" width="30" height="20" as="geometry" />
        </mxCell>
        <mxCell id="K2Dioi9SlevqumcRy7Vd-8" value="g(" style="text;html=1;strokeColor=none;fillColor=none;align=right;verticalAlign=middle;whiteSpace=wrap;rounded=0;" vertex="1" parent="1">
          <mxGeometry x="160" y="295" width="30" height="30" as="geometry" />
        </mxCell>
        <mxCell id="K2Dioi9SlevqumcRy7Vd-9" value="" style="rounded=0;whiteSpace=wrap;html=1;fillColor=#33FFFF;" vertex="1" parent="1">
          <mxGeometry x="190" y="300.24" width="30" height="20" as="geometry" />
        </mxCell>
        <mxCell id="K2Dioi9SlevqumcRy7Vd-10" value=")" style="text;html=1;strokeColor=none;fillColor=none;align=left;verticalAlign=middle;whiteSpace=wrap;rounded=0;" vertex="1" parent="1">
          <mxGeometry x="220" y="295" width="10" height="30" as="geometry" />
        </mxCell>
        <mxCell id="K2Dioi9SlevqumcRy7Vd-11" value="" style="shape=flexArrow;endArrow=classic;html=1;rounded=0;exitX=0;exitY=0.5;exitDx=0;exitDy=0;" edge="1" parent="1">
          <mxGeometry width="50" height="50" relative="1" as="geometry">
            <mxPoint x="230" y="309.8" as="sourcePoint" />
            <mxPoint x="280" y="309.8" as="targetPoint" />
          </mxGeometry>
        </mxCell>
        <mxCell id="K2Dioi9SlevqumcRy7Vd-12" value="" style="rounded=0;whiteSpace=wrap;html=1;fillColor=#66B2FF;" vertex="1" parent="1">
          <mxGeometry x="290" y="300.24" width="30" height="20" as="geometry" />
        </mxCell>
        <mxCell id="K2Dioi9SlevqumcRy7Vd-13" value="f(" style="text;html=1;strokeColor=none;fillColor=none;align=right;verticalAlign=middle;whiteSpace=wrap;rounded=0;" vertex="1" parent="1">
          <mxGeometry x="160" y="340" width="30" height="30" as="geometry" />
        </mxCell>
        <mxCell id="K2Dioi9SlevqumcRy7Vd-14" value=")" style="text;html=1;strokeColor=none;fillColor=none;align=left;verticalAlign=middle;whiteSpace=wrap;rounded=0;" vertex="1" parent="1">
          <mxGeometry x="240" y="340.24" width="10" height="30" as="geometry" />
        </mxCell>
        <mxCell id="K2Dioi9SlevqumcRy7Vd-15" value="" style="shape=flexArrow;endArrow=classic;html=1;rounded=0;exitX=0;exitY=0.5;exitDx=0;exitDy=0;" edge="1" parent="1">
          <mxGeometry width="50" height="50" relative="1" as="geometry">
            <mxPoint x="255" y="354.8" as="sourcePoint" />
            <mxPoint x="305" y="354.8" as="targetPoint" />
          </mxGeometry>
        </mxCell>
        <mxCell id="K2Dioi9SlevqumcRy7Vd-16" value="" style="rounded=0;whiteSpace=wrap;html=1;fillColor=#FFFF33;" vertex="1" parent="1">
          <mxGeometry x="310" y="345" width="30" height="20" as="geometry" />
        </mxCell>
        <mxCell id="K2Dioi9SlevqumcRy7Vd-17" value="g(" style="text;html=1;strokeColor=none;fillColor=none;align=right;verticalAlign=middle;whiteSpace=wrap;rounded=0;" vertex="1" parent="1">
          <mxGeometry x="170" y="340" width="30" height="30" as="geometry" />
        </mxCell>
        <mxCell id="K2Dioi9SlevqumcRy7Vd-18" value="" style="rounded=0;whiteSpace=wrap;html=1;fillColor=#33FFFF;" vertex="1" parent="1">
          <mxGeometry x="200" y="345.24" width="30" height="20" as="geometry" />
        </mxCell>
        <mxCell id="K2Dioi9SlevqumcRy7Vd-19" value=")" style="text;html=1;strokeColor=none;fillColor=none;align=left;verticalAlign=middle;whiteSpace=wrap;rounded=0;" vertex="1" parent="1">
          <mxGeometry x="230" y="340" width="10" height="30" as="geometry" />
        </mxCell>
        <mxCell id="K2Dioi9SlevqumcRy7Vd-20" value="(f&amp;nbsp;&lt;span style=&quot;box-sizing: border-box; border-style: initial; border-color: initial; border-image: initial; text-align: center;&quot;&gt;∘ g)(&lt;/span&gt;" style="text;html=1;strokeColor=none;fillColor=none;align=right;verticalAlign=middle;whiteSpace=wrap;rounded=0;" vertex="1" parent="1">
          <mxGeometry x="40" y="340.24" width="40" height="30" as="geometry" />
        </mxCell>
        <mxCell id="K2Dioi9SlevqumcRy7Vd-21" value="" style="rounded=0;whiteSpace=wrap;html=1;fillColor=#33FFFF;" vertex="1" parent="1">
          <mxGeometry x="80" y="345.24" width="30" height="20" as="geometry" />
        </mxCell>
        <mxCell id="K2Dioi9SlevqumcRy7Vd-22" value=")" style="text;html=1;strokeColor=none;fillColor=none;align=left;verticalAlign=middle;whiteSpace=wrap;rounded=0;" vertex="1" parent="1">
          <mxGeometry x="110" y="340.24" width="10" height="30" as="geometry" />
        </mxCell>
        <mxCell id="K2Dioi9SlevqumcRy7Vd-23" value="" style="shape=flexArrow;endArrow=classic;html=1;rounded=0;exitX=0;exitY=0.5;exitDx=0;exitDy=0;" edge="1" parent="1">
          <mxGeometry width="50" height="50" relative="1" as="geometry">
            <mxPoint x="122" y="355.04" as="sourcePoint" />
            <mxPoint x="172" y="355.04" as="targetPoint" />
          </mxGeometry>
        </mxCell>
        <mxCell id="K2Dioi9SlevqumcRy7Vd-24" value="g(" style="text;html=1;strokeColor=none;fillColor=none;align=right;verticalAlign=middle;whiteSpace=wrap;rounded=0;" vertex="1" parent="1">
          <mxGeometry x="160" y="385" width="30" height="30" as="geometry" />
        </mxCell>
        <mxCell id="K2Dioi9SlevqumcRy7Vd-25" value=")" style="text;html=1;strokeColor=none;fillColor=none;align=left;verticalAlign=middle;whiteSpace=wrap;rounded=0;" vertex="1" parent="1">
          <mxGeometry x="240" y="385.24" width="10" height="30" as="geometry" />
        </mxCell>
        <mxCell id="K2Dioi9SlevqumcRy7Vd-26" value="" style="shape=flexArrow;endArrow=classic;html=1;rounded=0;exitX=0;exitY=0.5;exitDx=0;exitDy=0;" edge="1" parent="1">
          <mxGeometry width="50" height="50" relative="1" as="geometry">
            <mxPoint x="255" y="399.8" as="sourcePoint" />
            <mxPoint x="305" y="399.8" as="targetPoint" />
          </mxGeometry>
        </mxCell>
        <mxCell id="K2Dioi9SlevqumcRy7Vd-27" value="" style="rounded=0;whiteSpace=wrap;html=1;fillColor=#FFFF33;" vertex="1" parent="1">
          <mxGeometry x="310" y="390" width="30" height="20" as="geometry" />
        </mxCell>
        <mxCell id="K2Dioi9SlevqumcRy7Vd-28" value="" style="rounded=0;whiteSpace=wrap;html=1;fillColor=#33FFFF;" vertex="1" parent="1">
          <mxGeometry x="200" y="390.24" width="30" height="20" as="geometry" />
        </mxCell>
        <mxCell id="K2Dioi9SlevqumcRy7Vd-29" value=")" style="text;html=1;strokeColor=none;fillColor=none;align=left;verticalAlign=middle;whiteSpace=wrap;rounded=0;" vertex="1" parent="1">
          <mxGeometry x="230" y="385" width="10" height="30" as="geometry" />
        </mxCell>
        <mxCell id="K2Dioi9SlevqumcRy7Vd-30" value="(g&amp;nbsp;&lt;span style=&quot;box-sizing: border-box; border-style: initial; border-color: initial; border-image: initial; text-align: center;&quot;&gt;∘ f)(&lt;/span&gt;" style="text;html=1;strokeColor=none;fillColor=none;align=right;verticalAlign=middle;whiteSpace=wrap;rounded=0;" vertex="1" parent="1">
          <mxGeometry x="40" y="385.24" width="40" height="30" as="geometry" />
        </mxCell>
        <mxCell id="K2Dioi9SlevqumcRy7Vd-31" value="" style="rounded=0;whiteSpace=wrap;html=1;fillColor=#33FFFF;" vertex="1" parent="1">
          <mxGeometry x="80" y="390.24" width="30" height="20" as="geometry" />
        </mxCell>
        <mxCell id="K2Dioi9SlevqumcRy7Vd-32" value=")" style="text;html=1;strokeColor=none;fillColor=none;align=left;verticalAlign=middle;whiteSpace=wrap;rounded=0;" vertex="1" parent="1">
          <mxGeometry x="110" y="385.24" width="10" height="30" as="geometry" />
        </mxCell>
        <mxCell id="K2Dioi9SlevqumcRy7Vd-33" value="" style="shape=flexArrow;endArrow=classic;html=1;rounded=0;exitX=0;exitY=0.5;exitDx=0;exitDy=0;" edge="1" parent="1">
          <mxGeometry width="50" height="50" relative="1" as="geometry">
            <mxPoint x="122" y="400.04" as="sourcePoint" />
            <mxPoint x="172" y="400.04" as="targetPoint" />
          </mxGeometry>
        </mxCell>
        <mxCell id="K2Dioi9SlevqumcRy7Vd-34" value="Commutative" style="text;html=1;strokeColor=none;fillColor=none;align=center;verticalAlign=middle;whiteSpace=wrap;rounded=0;" vertex="1" parent="1">
          <mxGeometry x="50" y="245" width="60" height="30" as="geometry" />
        </mxCell>
        <mxCell id="K2Dioi9SlevqumcRy7Vd-35" value="&lt;pre style=&quot;box-sizing: inherit; letter-spacing: 0.15008px; word-spacing: normal; background: rgb(45, 45, 45); font-family: Consolas, Monaco, &amp;quot;Andale Mono&amp;quot;, &amp;quot;Ubuntu Mono&amp;quot;, monospace; text-align: left; word-break: normal; overflow-wrap: normal; line-height: 1.5; tab-size: 4; hyphens: none; padding: 1em; margin-top: 0.5em; margin-bottom: 0.5em; overflow: auto;&quot;&gt;&lt;code style=&quot;box-sizing: inherit; background: none; font-family: Consolas, Monaco, &amp;quot;Andale Mono&amp;quot;, &amp;quot;Ubuntu Mono&amp;quot;, monospace; word-spacing: normal; word-break: normal; overflow-wrap: normal; line-height: 1.5; tab-size: 4; hyphens: none;&quot; class=&quot;language-python&quot;&gt;&lt;font style=&quot;font-size: 10px;&quot;&gt;&lt;font color=&quot;#cccccc&quot;&gt;def&lt;/font&gt;&lt;span style=&quot;color: rgb(204, 204, 204); box-sizing: inherit;&quot;&gt; &lt;/span&gt;&lt;span style=&quot;color: rgb(240, 141, 73); box-sizing: inherit;&quot; class=&quot;token token&quot;&gt;f&lt;/span&gt;&lt;span style=&quot;color: rgb(204, 204, 204); box-sizing: inherit;&quot; class=&quot;token token&quot;&gt;(&lt;/span&gt;&lt;span style=&quot;color: rgb(204, 204, 204); box-sizing: inherit;&quot;&gt;x&lt;/span&gt;&lt;span style=&quot;color: rgb(204, 204, 204); box-sizing: inherit;&quot; class=&quot;token token&quot;&gt;)&lt;/span&gt;&lt;span style=&quot;color: rgb(204, 204, 204); box-sizing: inherit;&quot; class=&quot;token token&quot;&gt;:&lt;/span&gt;&lt;span style=&quot;color: rgb(204, 204, 204); box-sizing: inherit;&quot;&gt;&lt;br&gt;&lt;/span&gt;&lt;span style=&quot;color: rgb(204, 204, 204); box-sizing: inherit;&quot;&gt;    &lt;/span&gt;&lt;span style=&quot;color: rgb(204, 153, 205); box-sizing: inherit;&quot; class=&quot;token token&quot;&gt;return&lt;/span&gt;&lt;span style=&quot;color: rgb(204, 204, 204); box-sizing: inherit;&quot;&gt; x &lt;/span&gt;&lt;span style=&quot;color: rgb(103, 205, 204); box-sizing: inherit;&quot; class=&quot;token token&quot;&gt;+&lt;/span&gt;&lt;span style=&quot;color: rgb(204, 204, 204); box-sizing: inherit;&quot;&gt; &lt;/span&gt;&lt;span style=&quot;color: rgb(240, 141, 73); box-sizing: inherit;&quot; class=&quot;token token&quot;&gt;2&lt;/span&gt;&lt;span style=&quot;color: rgb(204, 204, 204); box-sizing: inherit;&quot;&gt;&lt;br&gt;&lt;/span&gt;&lt;font color=&quot;#cccccc&quot;&gt;&lt;br&gt;&lt;span style=&quot;box-sizing: inherit; box-sizing: inherit;&quot;&gt;&lt;/span&gt;&lt;/font&gt;&lt;span style=&quot;color: rgb(204, 153, 205); box-sizing: inherit;&quot; class=&quot;token token&quot;&gt;def&lt;/span&gt;&lt;span style=&quot;color: rgb(204, 204, 204); box-sizing: inherit;&quot;&gt; &lt;/span&gt;&lt;span style=&quot;color: rgb(240, 141, 73); box-sizing: inherit;&quot; class=&quot;token token&quot;&gt;g&lt;/span&gt;&lt;span style=&quot;color: rgb(204, 204, 204); box-sizing: inherit;&quot; class=&quot;token token&quot;&gt;(&lt;/span&gt;&lt;span style=&quot;color: rgb(204, 204, 204); box-sizing: inherit;&quot;&gt;x&lt;/span&gt;&lt;span style=&quot;color: rgb(204, 204, 204); box-sizing: inherit;&quot; class=&quot;token token&quot;&gt;)&lt;/span&gt;&lt;span style=&quot;color: rgb(204, 204, 204); box-sizing: inherit;&quot; class=&quot;token token&quot;&gt;:&lt;/span&gt;&lt;span style=&quot;color: rgb(204, 204, 204); box-sizing: inherit;&quot;&gt;&lt;br&gt;&lt;/span&gt;&lt;span style=&quot;color: rgb(204, 204, 204); box-sizing: inherit;&quot;&gt;    &lt;/span&gt;&lt;span style=&quot;color: rgb(204, 153, 205); box-sizing: inherit;&quot; class=&quot;token token&quot;&gt;return&lt;/span&gt;&lt;span style=&quot;box-sizing: inherit;&quot;&gt;&lt;font color=&quot;#cccccc&quot;&gt; x &lt;/font&gt;&lt;font color=&quot;#67cdcc&quot;&gt;+&lt;/font&gt;&lt;/span&gt;&lt;span style=&quot;color: rgb(204, 204, 204); box-sizing: inherit;&quot;&gt; &lt;/span&gt;&lt;span style=&quot;color: rgb(240, 141, 73); box-sizing: inherit;&quot; class=&quot;token token&quot;&gt;3&lt;/span&gt;&lt;span style=&quot;color: rgb(204, 204, 204); box-sizing: inherit;&quot;&gt;&lt;br&gt;&lt;/span&gt;&lt;font color=&quot;#cccccc&quot;&gt;&lt;br&gt;&lt;/font&gt;&lt;span style=&quot;color: rgb(204, 204, 204); box-sizing: inherit;&quot;&gt;x &lt;/span&gt;&lt;span style=&quot;color: rgb(103, 205, 204); box-sizing: inherit;&quot; class=&quot;token token&quot;&gt;=&lt;/span&gt;&lt;span style=&quot;color: rgb(204, 204, 204); box-sizing: inherit;&quot;&gt; &lt;/span&gt;&lt;span style=&quot;color: rgb(240, 141, 73); box-sizing: inherit;&quot; class=&quot;token token&quot;&gt;4&lt;/span&gt;&lt;span style=&quot;color: rgb(204, 204, 204); box-sizing: inherit;&quot;&gt;&lt;br&gt;&lt;/span&gt;&lt;font color=&quot;#cccccc&quot;&gt;&lt;br&gt;&lt;span style=&quot;box-sizing: inherit; box-sizing: inherit;&quot;&gt;&lt;/span&gt;&lt;/font&gt;&lt;span style=&quot;color: rgb(204, 153, 205); box-sizing: inherit;&quot; class=&quot;token token&quot;&gt;print&lt;/span&gt;&lt;span style=&quot;color: rgb(204, 204, 204); box-sizing: inherit;&quot; class=&quot;token token&quot;&gt;(&lt;/span&gt;&lt;span style=&quot;color: rgb(204, 204, 204); box-sizing: inherit;&quot;&gt;f&lt;/span&gt;&lt;span style=&quot;color: rgb(204, 204, 204); box-sizing: inherit;&quot; class=&quot;token token&quot;&gt;(&lt;/span&gt;&lt;span style=&quot;color: rgb(204, 204, 204); box-sizing: inherit;&quot;&gt;g&lt;/span&gt;&lt;span style=&quot;color: rgb(204, 204, 204); box-sizing: inherit;&quot; class=&quot;token token&quot;&gt;(&lt;/span&gt;&lt;span style=&quot;color: rgb(204, 204, 204); box-sizing: inherit;&quot;&gt;x&lt;/span&gt;&lt;span style=&quot;color: rgb(204, 204, 204); box-sizing: inherit;&quot; class=&quot;token token&quot;&gt;)&lt;/span&gt;&lt;span style=&quot;color: rgb(204, 204, 204); box-sizing: inherit;&quot; class=&quot;token token&quot;&gt;)&lt;/span&gt;&lt;span style=&quot;color: rgb(204, 204, 204); box-sizing: inherit;&quot; class=&quot;token token&quot;&gt;)&lt;/span&gt;&lt;span style=&quot;color: rgb(204, 204, 204); box-sizing: inherit;&quot;&gt;  &lt;/span&gt;&lt;span style=&quot;color: rgb(153, 153, 153); box-sizing: inherit;&quot; class=&quot;token token&quot;&gt;# Output: 9&lt;/span&gt;&lt;span style=&quot;color: rgb(204, 204, 204); box-sizing: inherit;&quot;&gt;&lt;br&gt;&lt;/span&gt;&lt;font color=&quot;#cccccc&quot;&gt;&lt;span style=&quot;box-sizing: inherit; box-sizing: inherit;&quot;&gt;&lt;/span&gt;&lt;/font&gt;&lt;span style=&quot;color: rgb(204, 153, 205); box-sizing: inherit;&quot; class=&quot;token token&quot;&gt;print&lt;/span&gt;&lt;span style=&quot;color: rgb(204, 204, 204); box-sizing: inherit;&quot; class=&quot;token token&quot;&gt;(&lt;/span&gt;&lt;span style=&quot;color: rgb(204, 204, 204); box-sizing: inherit;&quot;&gt;g&lt;/span&gt;&lt;span style=&quot;color: rgb(204, 204, 204); box-sizing: inherit;&quot; class=&quot;token token&quot;&gt;(&lt;/span&gt;&lt;span style=&quot;color: rgb(204, 204, 204); box-sizing: inherit;&quot;&gt;f&lt;/span&gt;&lt;span style=&quot;color: rgb(204, 204, 204); box-sizing: inherit;&quot; class=&quot;token token&quot;&gt;(&lt;/span&gt;&lt;span style=&quot;color: rgb(204, 204, 204); box-sizing: inherit;&quot;&gt;x&lt;/span&gt;&lt;span style=&quot;color: rgb(204, 204, 204); box-sizing: inherit;&quot; class=&quot;token token&quot;&gt;)&lt;/span&gt;&lt;span style=&quot;color: rgb(204, 204, 204); box-sizing: inherit;&quot; class=&quot;token token&quot;&gt;)&lt;/span&gt;&lt;span style=&quot;color: rgb(204, 204, 204); box-sizing: inherit;&quot; class=&quot;token token&quot;&gt;)&lt;/span&gt;&lt;span style=&quot;color: rgb(204, 204, 204); box-sizing: inherit;&quot;&gt;  &lt;/span&gt;&lt;span style=&quot;color: rgb(153, 153, 153); box-sizing: inherit;&quot; class=&quot;token token&quot;&gt;# Output: 9&lt;/span&gt;&lt;/font&gt;&lt;/code&gt;&lt;/pre&gt;" style="text;html=1;strokeColor=none;fillColor=none;align=center;verticalAlign=middle;whiteSpace=wrap;rounded=0;" vertex="1" parent="1">
          <mxGeometry x="770" y="230" width="180" height="210" as="geometry" />
        </mxCell>
      </root>
    </mxGraphModel>
  </diagram>
</mxfile>
